<svg version="1.2" xmlns="http://www.w3.org/2000/svg" viewBox="0 0 437 460" width="437" height="460">
	<style></style>
	<path fill-rule="evenodd"
		d="m63.1 3.9l10.4 0.6 0.5 10.5h11v-11h11v11h56v-11h33v11h11v-4c0-2.2 0.2-4.7 0.5-5.5 0.4-1.3 6.8-1.5 98.5-1.5v11h23v11h11v-11h22v11h-11v22h11v-11h11v11h11v22h-11v33h11v-11h11v23h11v55h-11v44h-11v11h-11v-11h-5.5c-5.4 0-5.5 0-5.5 3 0 2.5 0.4 3 5.5 3.5v60h-9l-0.5-44.5h-14v33l-10.5 0.5v11l24 1v9l-24 1-1 107-9.5 0.5v-6c0-3.3-0.2-6.7-0.5-7.5-0.4-1.2-2.6-1.5-11.8-1.5-7.1 0.1-11.8 0.5-12.9 1.3-1.2 0.8-1.7 2.7-1.8 6.2 0 2.8 0.5 5.6 1.2 6.3 0.9 0.8 4.9 1.2 24.8 1.2v10h-4c-2.2 0-4.7 0.2-5.5 0.5-1.3 0.4-1.5 3.9-1.5 46.5h-13v-17.5c0-17.3 0-17.5-2.3-18-1.2-0.3-32.6-0.4-137.2 0l-1 35-10.5 0.5v-23c0-19.6-0.2-23.1-1.5-23.5-0.8-0.3-4-0.5-12.5-0.5v-10l24.5-0.5v-14h-24l-0.5 7c-0.5 6.9-0.5 7-3.5 7.3-1.7 0.2-4 0.1-7.5-0.8v-53c0-46.2-0.2-53.1-1.5-53.5-0.8-0.3-6.2-0.5-22.5-0.5v-10h26l-0.5-11.5-10.5-0.5v-33h5v22l14.5 0.5 1 44 45.5 0.5v11h-11v16c0 8.8 0.2 16.7 0.5 17.5 0.4 1.1 1.9 1.5 10.5 1.5l-0.5 13.5-10 1-0.3 15.5c-0.1 8.5 0 16.5 0.8 20l117.5-0.5 0.2-6.3c0.2-4.7 0.7-6.2 1.8-6.2 0.9 0 1.5-0.9 1.5-2.5 0-1.6-0.6-2.5-1.5-2.5-1.3 0-1.5-2.4-1.5-15.3 0-14-0.1-15.3-2-16.9-1.1-1-3.6-1.8-5.5-1.8-3.5 0-3.5 0-3-8.5l10.5-0.5-0.5-21.5-10.5-0.5v-13h47v-45h11v-22h-12v3c0 2.9-0.1 3-5 3-4.9 0-5-0.1-5-3 0-2.7 0.3-3 6-3v-55h-23v-11h-22v-11h-11v11h-33v-11h-22v11h-33v11h-22v11h-12v22h-22v11h-22v56h-9v-56h-13v-11h-11v-22h-22v-11h-11v-33h11l-0.5-22.5-10.5-0.5v-22h11v-11h-11v-11h11v-22h11v-11h-11v-33h33zm58.9 340.1v5h25c0-6.6-0.3-9.5-0.5-10.7-0.5-2.2-0.9-2.3-11.3-2.3-8.1 0.1-11 0.4-12 1.5-0.6 0.8-1.2 3.8-1.2 6.5zm162.9-2.7c0 3 0.5 5.7 1.3 6.4 0.9 0.9 4.8 1.2 13.3 1l12-0.2 0.5-12.5h-27zm-163 26.5c0 2.6 0.6 5.3 1.3 6 0.8 0.9 4.6 1.3 12 1.3 8.6 0 10.8-0.3 11.2-1.5 0.3-0.9 0.5-3.6 0.5-6v-4.5h-25zm162.9 1.8l0.2 5.4h27l-0.5-11.5c-18.6-0.3-24.7-0.1-25.5 0.2-1.1 0.3-1.4 1.9-1.2 5.9zm-137.8-159.6h138l-0.5 9.5-137.5 0.5zm-31.5 10c2.3 0 2.5 0.3 2.5 5.5 0 5.2-0.2 5.5-2.5 5.5-2.4 0-2.5-0.3-2.5-5.5 0-5.2 0.1-5.5 2.5-5.5zm14 16c5.4 0 5.5 0 5.5 3 0 3-0.1 3-5.5 3-5.5 0-5.5 0-5.5-3 0-3 0-3 5.5-3zm17.5 0h138v3c0 3-0.1 3-11 3v11h-34v-11h-50v11h-16c-16 0-16 0-16-2.2 0-1.3-0.4-3.8-0.8-5.6-0.7-3.1-0.9-3.2-5.5-3.2-4.6 0-4.7-0.1-4.7-3zm-5.6 11.2c3.6 0.3 4.1 0.6 4.3 3.1 0.2 2.6 0.1 2.7-4.7 2.7-4.6 0-5.1-0.2-5.2-2.3-0.1-1.3 0.2-2.7 0.7-3.1 0.5-0.4 2.7-0.6 4.9-0.4zm152.5 0c5.2 0.3 5.6 0.5 5.8 3.1 0.3 2.7 0.2 2.7-6.2 2.7-6.1 0-6.6-0.1-6.7-2.3-0.1-1.3 0.2-2.7 0.7-3.1 0.5-0.4 3.4-0.6 6.4-0.4zm-112.1 22.8h22.2v32h-35v-5c0-3.6-0.5-5.1-1.5-5.5-0.9-0.3-5.8-0.5-20.5-0.5v-10h35l0.5 10.5 13.5 0.5v-11l-13.5-0.5zm47.1 0h22l-0.5 10.5-5.5 0.5c-5.3 0.5-5.6 0.6-5.9 3.5-0.1 1.7 0 4 0.3 5.3 0.5 1.9 1.2 2.2 11.6 2.2v-11l33.5 0.5v9l-10.5 0.6c-5.8 0.4-10.9 0.7-11.3 0.8-0.4 0-0.7 2.4-0.7 10.1h-33zm-0.5 33.5l0.5 10.5h-24.5l0.1-5.2c0-2.9 0.1-5.4 0.2-5.6 0.1-0.1 5.5-0.1 23.7 0.3zm-36 35l0.5 8.5h-24l-0.2-3.8c-0.1-2.1 0.2-4.2 0.7-4.6 0.5-0.3 5.8-0.5 23-0.1zm46 0l0.5 8.5h-21l-0.2-3.9c-0.2-2.7 0.2-4.1 1.2-4.5 0.8-0.2 5.5-0.4 19.5-0.1zm-42.5 10.4l21.5 0.6 0.2 6c0.2 4.1-0.1 6.2-1 6.7-0.7 0.4-5.6 0.8-20.7 0.8zm65.9 0.1v14l-21.5-0.5-0.4-5.4c-0.2-3-0.1-6 0.2-6.8 0.5-1 3.2-1.3 21.7-1.3z" />
</svg>